<?xml version="1.0" encoding="utf-8"?>
<!-- Generator: Adobe Illustrator 21.1.0, SVG Export Plug-In . SVG Version: 6.00 Build 0)  -->
<svg version="1.1" id="Layer_1" xmlns="http://www.w3.org/2000/svg" xmlns:xlink="http://www.w3.org/1999/xlink" x="0px" y="0px"
	 viewBox="0 0 500 500" style="enable-background:new 0 0 500 500;" xml:space="preserve">
<style type="text/css">
	.st0{fill:#FFFFFF;}
</style>
<g>
	<path class="st0" d="M164,184.3c0-21.5-0.1-43,0-64.5c0.1-43.7,34.1-77.6,77.7-77.7c13.1,0,26.3-0.9,39.2,2.7
		c33.3,9.1,56.9,39.1,57,73.5c0.2,44.2,0.2,88.3,0,132.5c-0.2,41.1-33.5,74.9-74.9,76c-13.9,0.4-28,1.1-41.7-2.6
		c-33.5-9.2-57-39.2-57.3-73.8C163.8,228.3,164,206.3,164,184.3z M178.9,184.6C178.9,184.6,178.9,184.6,178.9,184.6
		c0,22-0.1,44,0.1,66c0.2,27.3,18.2,51.7,44.8,58c12.1,2.9,25.1,2.6,37.7,2.5c34.1-0.2,60.9-26.8,61.2-60.9
		c0.4-43.6,0.4-87.3,0-130.9c-0.2-30.7-21.2-55.7-51.2-60.7c-10.6-1.7-21.6-1.5-32.4-0.9c-36.1,2-60.1,27.8-60.2,63.9
		C178.8,142.6,178.9,163.6,178.9,184.6z"/>
	<path class="st0" d="M260,432.1c6-6.1,12.1-12.2,18.1-18.3c1.3-1.3,2.5-2.7,3.9-3.8c3.7-3.1,8.4-3,11.2,0.1
		c2.8,3.1,2.7,7.3-0.7,10.7c-4.6,4.8-9.4,9.4-14.1,14.2c-7.1,7.1-14.1,14.2-21.2,21.2c-4.4,4.3-8.2,4.3-12.5,0
		c-11.6-11.5-23.1-23-34.6-34.6c-4-4-4.4-8.5-1.1-11.8c3.4-3.4,7.6-2.9,11.8,1.1c7.3,7,14.8,13.9,22.1,20.8c0-0.5,0.3-1.9,0.3-3.3
		c0-19.8,0-39.6,0-59.5c0-1.7-0.1-3.4,0.2-5c0.7-4.2,4.1-7.1,7.9-6.8c4.3,0.3,6.6,3,7.3,7c0.4,2.3,0.2,4.7,0.2,7
		c0,20.1,0,40.3,0,60.4C259.2,431.7,259.6,431.9,260,432.1z"/>
	<path class="st0" d="M243.2,135.3c0-8.3,0-16.7,0-25c0-6,2.9-9.7,7.7-9.8c4.8-0.1,7.9,3.4,7.9,9.5c0.1,17,0,34,0,51
		c0,5.9-3.2,9.7-7.9,9.6c-4.6-0.1-7.6-3.8-7.6-9.8C243.2,152.3,243.2,143.8,243.2,135.3z"/>
</g>
</svg>
